<svg width="70" height="79" fill="none" xmlns="http://www.w3.org/2000/svg"><path d="m56.075 16.709-3.771 4.844a28.287 28.287 0 1 1-15.782-5.888l-5.307 5.567 3.937 3.757 8.376-8.8 3.753-3.942-3.93-3.741L34.557.128l-3.755 3.941 5.728 5.456a34.399 34.399 0 0 0-6.905 68.344c1.793.284 3.605.426 5.42.426a34.413 34.413 0 0 0 21.03-61.586Z" fill="#FF6875"/><path d="M38.342 61.433V57.9c4.189-.468 8.263-3.113 8.263-8.137 0-6.825-6.346-7.607-10.981-8.178-2.964-.354-5.233-.765-5.233-2.56 0-2.497 3.52-2.767 5.029-2.767 2.245 0 4.641 1.056 5.456 2.403l.236.392 4.652-2.155-.23-.469a9.19 9.19 0 0 0-7.201-4.987v-3.111h-5.444v3.096c-5.075.754-8.09 3.566-8.09 7.596 0 6.571 5.967 7.238 10.32 7.727 3.88.457 5.685 1.415 5.685 3.017 0 3.051-4.225 3.289-5.52 3.289-2.883 0-5.657-1.438-6.467-3.35l-.2-.47-5.051 2.14.2.472c1.498 3.506 4.73 5.702 9.13 6.222v3.363h5.446Z" fill="#FF6875"/></svg>