<svg width="101" height="67" fill="none" xmlns="http://www.w3.org/2000/svg"><path d="M100.816 34.123v-.057a2.307 2.307 0 0 0-2.315-2.276h-.609l-9.411-18.179a2.311 2.311 0 0 0-2.062-1.245H70.361l.612-4.857A6.6 6.6 0 0 0 64.321.202h-49.84a2.463 2.463 0 0 0-2.438 2.22l-.503 4h28.4a3.236 3.236 0 0 1 3.251 3.34 3.446 3.446 0 0 1-3.425 3.339h-9.472v.014H2.484a2.436 2.436 0 0 0-2.422 2.357 2.289 2.289 0 0 0 2.3 2.364h36.823a3.461 3.461 0 0 1 2.939 3.531 3.693 3.693 0 0 1-3.646 3.575H13.096a2.461 2.461 0 0 0-2.447 2.39 2.311 2.311 0 0 0 2.322 2.388h25.088a3.46 3.46 0 0 1 2.988 3.528 3.693 3.693 0 0 1-3.671 3.576H6.178a2.462 2.462 0 0 0-2.448 2.389 2.31 2.31 0 0 0 2.322 2.389H8.14l-.816 8.541a6.599 6.599 0 0 0 6.652 7.306h1.802a10.403 10.403 0 0 0 10.295 8.613 11.106 11.106 0 0 0 10.745-8.613h22.468a7.613 7.613 0 0 0 4.885-1.832 6.64 6.64 0 0 0 4.652 1.832h.37a10.403 10.403 0 0 0 10.295 8.613 11.106 11.106 0 0 0 10.745-8.613h1.48a7.832 7.832 0 0 0 7.637-7.002l1.454-16.092v-.065c0-.023.006-.066.007-.1.001-.033.006-.049.006-.067Zm-74.62 27.165a5.782 5.782 0 0 1-5.805-5.961 6.16 6.16 0 0 1 6.117-5.962 5.783 5.783 0 0 1 5.806 5.962 6.16 6.16 0 0 1-6.117 5.961Zm53.418 0a5.783 5.783 0 0 1-5.806-5.961 6.16 6.16 0 0 1 6.117-5.962 5.782 5.782 0 0 1 5.806 5.962 6.16 6.16 0 0 1-6.117 5.961Zm14.99-11.15a2.871 2.871 0 0 1-2.766 2.537h-1.6a10.404 10.404 0 0 0-10.183-8.08 11.109 11.109 0 0 0-10.61 8.08h-.492a2.024 2.024 0 0 1-1.524-.64 2.054 2.054 0 0 1-.503-1.591l3.007-33.316h6.906L75.745 29.26a6.598 6.598 0 0 0 6.652 7.307h13.43l-1.224 13.571Z" fill="#FF6875"/></svg>